<?xml version="1.0" encoding="utf-8"?>
<!-- Generator: Adobe Illustrator 15.0.2, SVG Export Plug-In . SVG Version: 6.00 Build 0)  -->
<!DOCTYPE svg PUBLIC "-//W3C//DTD SVG 1.1//EN" "http://www.w3.org/Graphics/SVG/1.1/DTD/svg11.dtd">
<svg version="1.1" id="Layer_1" xmlns="http://www.w3.org/2000/svg" xmlns:xlink="http://www.w3.org/1999/xlink" x="0px" y="0px"
	 width="400px" height="400px" viewBox="-150 -150 400 400" enable-background="new -150 -150 400 400" xml:space="preserve">
<path fill="#FFFFFF" d="M170.933,130.338V92.499c20.633-11.962,34.552-34.214,34.552-59.772c0-38.156-30.94-69.105-69.101-69.105
	c-13.834,0-26.622,4.146-37.437,11.151C88.32-71.152,47.354-105.471-1.815-105.471c-57.232,0-103.634,46.402-103.634,103.634
	c0,30.65,13.399,58.114,34.55,77.077v42.463C-112.16,93.798-140,49.277-140-1.836c0-76.312,61.873-138.177,138.185-138.177
	c51.864,0,96.992,28.6,120.628,70.851c5.736-0.974,11.557-1.767,17.555-1.767C193.606-70.929,240-24.527,240,32.727
	C240.017,77.838,211.17,116.1,170.933,130.338z M-19.073,32.727c9.536,0,17.267,7.744,17.267,17.276v138.186
	c0,9.547-7.73,17.273-17.267,17.273c-9.536,0-17.275-7.727-17.275-17.273V50.002C-36.349,40.47-28.609,32.727-19.073,32.727z
	 M50.019,67.277c9.536,0,17.281,7.743,17.281,17.275v138.185c0,9.54-7.745,17.275-17.281,17.275
	c-9.536,0-17.275-7.735-17.275-17.275V84.553C32.744,75.004,40.483,67.277,50.019,67.277z M119.108,32.727
	c9.532,0,17.275,7.744,17.275,17.276v138.186c0,9.547-7.743,17.273-17.275,17.273c-9.54,0-17.276-7.727-17.276-17.273V50.002
	C101.832,40.47,109.576,32.727,119.108,32.727z"/>
</svg>
