<?xml version="1.0" encoding="utf-8"?>
<!-- Generator: Adobe Illustrator 15.0.2, SVG Export Plug-In . SVG Version: 6.00 Build 0)  -->
<!DOCTYPE svg PUBLIC "-//W3C//DTD SVG 1.1//EN" "http://www.w3.org/Graphics/SVG/1.1/DTD/svg11.dtd">
<svg version="1.1" id="Layer_1" xmlns="http://www.w3.org/2000/svg" xmlns:xlink="http://www.w3.org/1999/xlink" x="0px" y="0px"
	 width="400px" height="400px" viewBox="-150 -150 400 400" enable-background="new -150 -150 400 400" xml:space="preserve">
<path fill="#FFFFFF" d="M136.352,136.375c-2.421,0-5.609,0-9.169,0l30.955-38.109c27.481-9.125,47.312-35.004,47.312-65.538
	c0-38.147-30.931-69.078-69.091-69.078c-13.832,0-26.628,4.146-37.426,11.143c-10.636-45.916-51.6-80.241-100.754-80.241
	c-57.23,0-103.63,46.399-103.63,103.647c0,47.037,31.374,86.707,74.315,99.357l-11.652,32.619C-99.104,112.724-140,60.233-140-1.817
	c0-76.311,61.87-138.188,138.18-138.188c51.858,0,96.983,28.606,120.619,70.861c5.734-0.987,11.556-1.771,17.561-1.771
	C193.599-70.916,240-24.524,240,32.728C240,89.968,193.591,136.375,136.352,136.375z M32.72,15.453h86.357l-51.816,86.373h60.453
	L15.446,240.006l31.096-103.631h-57.007L32.72,15.453z"/>
</svg>
