<?xml version="1.0" encoding="utf-8"?>
<!-- Generator: Adobe Illustrator 15.0.2, SVG Export Plug-In . SVG Version: 6.00 Build 0)  -->
<!DOCTYPE svg PUBLIC "-//W3C//DTD SVG 1.1//EN" "http://www.w3.org/Graphics/SVG/1.1/DTD/svg11.dtd">
<svg version="1.1" id="Layer_1" xmlns="http://www.w3.org/2000/svg" xmlns:xlink="http://www.w3.org/1999/xlink" x="0px" y="0px"
	 width="400px" height="400px" viewBox="-150 -150 400 400" enable-background="new -150 -150 400 400" xml:space="preserve">
<path fill="#FFFFFF" d="M170.909,147.626v-37.838c20.64-11.978,34.541-34.229,34.541-59.787c0-38.155-30.931-69.094-69.09-69.094
	c-13.824,0-26.629,4.146-37.426,11.151C88.307-53.865,47.334-88.191-1.819-88.191c-57.24,0-103.632,46.409-103.632,103.648
	c0,30.648,13.391,58.119,34.55,77.073v42.462C-112.161,111.077-140,66.567-140,15.457c0-76.319,61.87-138.189,138.181-138.189
	c51.856,0,96.992,28.607,120.618,70.862c5.736-0.979,11.547-1.772,17.562-1.772C193.6-53.642,240-7.233,240,50.001
	C240,95.111,211.118,133.373,170.909,147.626z M-19.095,84.552c9.544,0,17.275,7.743,17.275,17.274
	c0,9.548-7.731,17.274-17.275,17.274c-9.535,0-17.265-7.727-17.265-17.274C-36.36,92.295-28.63,84.552-19.095,84.552z
	 M-19.095,153.649c9.544,0,17.275,7.743,17.275,17.274c0,9.539-7.731,17.258-17.275,17.258c-9.535,0-17.265-7.727-17.265-17.258
	C-36.36,161.375-28.63,153.649-19.095,153.649z M50.004,119.101c9.54,0,17.275,7.743,17.275,17.274
	c0,9.539-7.735,17.274-17.275,17.274c-9.544,0-17.274-7.735-17.274-17.274C32.729,126.826,40.46,119.101,50.004,119.101z
	 M50.004,188.182c9.54,0,17.275,7.742,17.275,17.274c0,9.548-7.735,17.276-17.275,17.276c-9.544,0-17.274-7.729-17.274-17.276
	C32.729,195.924,40.46,188.182,50.004,188.182z M119.086,84.552c9.539,0,17.274,7.743,17.274,17.274
	c0,9.548-7.735,17.274-17.274,17.274c-9.54,0-17.267-7.727-17.267-17.274C101.819,92.295,109.562,84.552,119.086,84.552z
	 M119.086,153.649c9.539,0,17.274,7.743,17.274,17.274c0,9.539-7.735,17.258-17.274,17.258c-9.54,0-17.267-7.727-17.267-17.258
	C101.819,161.375,109.562,153.649,119.086,153.649z"/>
</svg>
