<?xml version="1.0" encoding="utf-8"?>
<!-- Generator: Adobe Illustrator 15.0.2, SVG Export Plug-In . SVG Version: 6.00 Build 0)  -->
<!DOCTYPE svg PUBLIC "-//W3C//DTD SVG 1.1//EN" "http://www.w3.org/Graphics/SVG/1.1/DTD/svg11.dtd">
<svg version="1.1" id="Layer_1" xmlns="http://www.w3.org/2000/svg" xmlns:xlink="http://www.w3.org/1999/xlink" x="0px" y="0px"
	 width="400px" height="400px" viewBox="-150 -150 400 400" enable-background="new -150 -150 400 400" xml:space="preserve">
<path fill="#FFFFFF" d="M-1.816,188.184C-78.129,188.184-140,126.32-140,50S-78.129-88.184-1.816-88.184
	c51.858,0,96.986,28.612,120.621,70.855c5.736-0.979,11.557-1.771,17.562-1.771C193.607-19.1,240,27.31,240,84.55
	c0,57.224-46.393,103.634-103.633,103.634C112.395,188.184,25.808,188.184-1.816,188.184z M136.367,153.633
	c38.16,0,69.1-30.939,69.1-69.083c0-38.151-30.939-69.1-69.1-69.1c-13.834,0-26.621,4.158-37.436,11.151
	C88.304-19.311,47.343-53.642-1.825-53.642C-59.057-53.642-105.458-7.24-105.458,50S-59.057,153.633-1.825,153.633
	C29.427,153.633,110.285,153.633,136.367,153.633z"/>
</svg>
