<?xml version="1.0" encoding="utf-8"?>
<!-- Generator: Adobe Illustrator 15.0.2, SVG Export Plug-In . SVG Version: 6.00 Build 0)  -->
<!DOCTYPE svg PUBLIC "-//W3C//DTD SVG 1.1//EN" "http://www.w3.org/Graphics/SVG/1.1/DTD/svg11.dtd">
<svg version="1.1" id="Layer_1" xmlns="http://www.w3.org/2000/svg" xmlns:xlink="http://www.w3.org/1999/xlink" x="0px" y="0px"
	 width="400px" height="400px" viewBox="-150 -150 400 400" enable-background="new -150 -150 400 400" xml:space="preserve">
<path fill="#FFFFFF" d="M225.924,64.069h-28.152c-7.767,0-14.076-6.296-14.076-14.076c0-7.767,6.31-14.062,14.076-14.062h28.152
	c7.767,0,14.076,6.303,14.076,14.062C240,57.773,233.69,64.069,225.924,64.069z M170.623-29.617c-5.498,5.491-14.405,5.491-19.904,0
	c-5.498-5.492-5.498-14.406,0-19.897l19.904-19.904c5.499-5.499,14.406-5.499,19.904,0c5.499,5.491,5.499,14.406,0,19.904
	L170.623-29.617z M149.881,80.221L149.881,80.221c12.316,14.681,19.753,33.575,19.753,54.229c0,46.627-37.815,84.442-84.456,84.442
	c-19.52,0-90.078,0-112.587,0c-62.18,0-112.59-50.407-112.59-112.595C-140,44.11-89.59-6.297-27.41-6.297
	c11.066,0,21.75,1.636,31.833,4.604c15.451-19.897,39.541-32.757,66.679-32.757c46.641,0,84.456,37.815,84.456,84.442
	C155.544,60.66,153.482,70.832,149.881,80.221z M-111.858,106.297c0,46.641,37.802,84.442,84.442,84.442
	c25.451,0,91.342,0,112.594,0c31.094,0,56.29-25.21,56.29-56.29c0-31.087-25.196-56.304-56.29-56.304
	c-11.258,0-21.705,3.395-30.503,9.086c-8.649-37.41-42.028-65.376-82.091-65.376C-74.057,21.855-111.858,59.656-111.858,106.297z
	 M71.102-6.297c-15.574,0-29.66,6.323-39.846,16.536c16.468,10.104,30.156,24.296,39.613,41.197
	c4.674-0.797,9.416-1.443,14.31-1.443c14.956,0,28.99,3.938,41.17,10.749l0,0c0.673-3.478,1.058-7.065,1.058-10.749
	C127.405,18.913,102.195-6.297,71.102-6.297z M71.102-62.601c-7.767,0-14.076-6.295-14.076-14.069v-28.146
	c0-7.773,6.31-14.076,14.076-14.076s14.076,6.302,14.076,14.076v28.146C85.178-68.89,78.882-62.601,71.102-62.601z M-28.413-29.617
	l-19.897-19.897c-5.498-5.499-5.498-14.413,0-19.904c5.488-5.499,14.406-5.499,19.897,0l19.901,19.904
	c5.499,5.492,5.499,14.406,0,19.897C-14-24.126-22.918-24.126-28.413-29.617z"/>
</svg>
