<?xml version="1.0" encoding="utf-8"?>
<!-- Generator: Adobe Illustrator 15.0.2, SVG Export Plug-In . SVG Version: 6.00 Build 0)  -->
<!DOCTYPE svg PUBLIC "-//W3C//DTD SVG 1.1//EN" "http://www.w3.org/Graphics/SVG/1.1/DTD/svg11.dtd">
<svg version="1.1" id="Layer_1" xmlns="http://www.w3.org/2000/svg" xmlns:xlink="http://www.w3.org/1999/xlink" x="0px" y="0px"
	 width="400px" height="400px" viewBox="-150 -150 400 400" enable-background="new -150 -150 400 400" xml:space="preserve">
<path fill="#FFFFFF" d="M170.934,130.344v-37.84c20.615-11.978,34.533-34.212,34.533-59.771c0-38.16-30.923-69.1-69.083-69.1
	c-13.851,0-26.638,4.15-37.435,11.151c-10.646-45.92-51.598-80.243-100.766-80.243c-57.241,0-103.634,46.401-103.634,103.642
	c0,30.653,13.387,58.117,34.533,77.097v42.445C-112.173,93.804-140,49.3-140-1.816C-140-78.137-78.137-140-1.816-140
	c51.867,0,96.994,28.604,120.63,70.846c5.735-0.97,11.539-1.763,17.554-1.763c57.24,0,103.633,46.41,103.633,103.65
	C240.017,77.827,211.152,116.105,170.934,130.344z M-19.083,32.733c9.54,0,17.275,7.743,17.275,17.275v34.534
	c0,9.548-7.735,17.274-17.275,17.274s-17.275-7.727-17.275-17.274V50.008C-36.358,40.46-28.623,32.733-19.083,32.733z
	 M-19.083,136.367c9.54,0,17.275,7.743,17.275,17.274v34.533c0,9.549-7.735,17.275-17.275,17.275s-17.275-7.727-17.275-17.275
	v-34.533C-36.358,144.094-28.623,136.367-19.083,136.367z M50,67.267c9.549,0,17.283,7.743,17.283,17.275v34.55
	c0,9.54-7.743,17.275-17.283,17.275c-9.532,0-17.258-7.735-17.258-17.275v-34.55C32.742,75.01,40.477,67.267,50,67.267z M50,170.917
	c9.549,0,17.283,7.743,17.283,17.258v34.55C67.283,232.273,59.54,240,50,240c-9.532,0-17.258-7.727-17.258-17.275v-34.55
	C32.742,178.644,40.477,170.917,50,170.917z M119.108,32.733c9.532,0,17.275,7.743,17.275,17.275v34.534
	c0,9.548-7.743,17.274-17.275,17.274c-9.548,0-17.274-7.727-17.274-17.274V50.008C101.834,40.46,109.561,32.733,119.108,32.733z
	 M119.108,136.367c9.532,0,17.275,7.743,17.275,17.274v34.533c0,9.549-7.743,17.275-17.275,17.275
	c-9.548,0-17.274-7.727-17.274-17.275v-34.533C101.834,144.094,109.561,136.367,119.108,136.367z"/>
</svg>
