<?xml version="1.0" encoding="utf-8"?>
<!-- Generator: Adobe Illustrator 15.0.2, SVG Export Plug-In . SVG Version: 6.00 Build 0)  -->
<!DOCTYPE svg PUBLIC "-//W3C//DTD SVG 1.1//EN" "http://www.w3.org/Graphics/SVG/1.1/DTD/svg11.dtd">
<svg version="1.1" id="Layer_1" xmlns="http://www.w3.org/2000/svg" xmlns:xlink="http://www.w3.org/1999/xlink" x="0px" y="0px"
	 width="400px" height="400px" viewBox="-150 -150 400 400" enable-background="new -150 -150 400 400" xml:space="preserve">
<path fill="#FFFFFF" d="M222.726,153.642h-345.451c-9.535,0-17.274-7.734-17.274-17.275c0-9.531,7.739-17.275,17.274-17.275h345.451
	c9.531,0,17.274,7.744,17.274,17.275S232.273,153.642,222.726,153.642z M222.726,84.542h-345.451
	c-9.535,0-17.274-7.726-17.274-17.274c0-9.531,7.739-17.274,17.274-17.274h345.451c9.531,0,17.274,7.743,17.274,17.274
	C240,76.816,232.273,84.542,222.726,84.542z M136.36-19.084c-13.824,0-26.629,4.146-37.426,11.151
	c-10.645-45.924-51.6-80.25-100.754-80.25c-57.231,0-103.632,46.409-103.632,103.648H-140c0-76.311,61.87-138.189,138.181-138.189
	c51.857,0,96.992,28.607,120.618,70.862c5.736-0.979,11.548-1.771,17.562-1.771c45.102,0,83.362,28.864,97.608,69.099H196.13
	C184.178-5.179,161.918-19.084,136.36-19.084z M-122.726,188.173h345.451c9.531,0,17.274,7.744,17.274,17.275
	c0,9.549-7.743,17.275-17.274,17.275h-345.451c-9.535,0-17.274-7.727-17.274-17.275C-140,195.917-132.27,188.173-122.726,188.173z"
	/>
</svg>
