<?xml version="1.0" encoding="utf-8"?>
<!-- Generator: Adobe Illustrator 15.0.2, SVG Export Plug-In . SVG Version: 6.00 Build 0)  -->
<!DOCTYPE svg PUBLIC "-//W3C//DTD SVG 1.1//EN" "http://www.w3.org/Graphics/SVG/1.1/DTD/svg11.dtd">
<svg version="1.1" id="Layer_1" xmlns="http://www.w3.org/2000/svg" xmlns:xlink="http://www.w3.org/1999/xlink" x="0px" y="0px"
	 width="400px" height="400px" viewBox="-150 -150 400 400" enable-background="new -150 -150 400 400" xml:space="preserve">
<path fill="#FFFFFF" d="M170.908,130.338v-37.84c20.641-11.961,34.542-34.213,34.542-59.771c0-38.156-30.932-69.104-69.084-69.104
	c-13.833,0-26.638,4.146-37.435,11.151C88.304-71.151,47.33-105.469-1.825-105.469c-57.232,0-103.633,46.401-103.633,103.633
	c0,30.649,13.391,58.113,34.542,77.075v42.463C-112.168,93.797-140,49.276-140-1.836c0-76.312,61.863-138.175,138.175-138.175
	c51.859,0,96.995,28.599,120.63,70.851c5.728-0.975,11.539-1.768,17.562-1.768C193.599-70.928,240-24.526,240,32.727
	C240,77.838,211.136,116.1,170.908,130.338z M-19.092,136.36c-9.536,0-8.637-7.727-8.637-17.259v-69.1
	c0-9.532-0.898-17.275,8.637-17.275c9.536,0,8.638,7.744,8.638,17.275v69.1C-10.454,128.634-9.556,136.36-19.092,136.36z
	 M-19.092,170.91c9.536,0,17.267,7.743,17.267,17.275c0,9.548-7.73,17.274-17.267,17.274c-9.536,0-17.275-7.727-17.275-17.274
	C-36.367,178.653-28.636,170.91-19.092,170.91z M50,170.91c-9.536,0-8.638-7.727-8.638-17.275V84.552
	c0-9.531-0.898-17.274,8.638-17.274c9.54,0,8.638,7.743,8.638,17.274v69.083C58.638,163.184,59.54,170.91,50,170.91z M50,205.46
	c9.54,0,17.267,7.743,17.267,17.275c0,9.54-7.727,17.275-17.267,17.275c-9.536,0-17.275-7.735-17.275-17.275
	C32.725,213.187,40.456,205.46,50,205.46z M119.092,136.36c-9.532,0-8.638-7.727-8.638-17.259v-69.1
	c0-9.532-0.895-17.275,8.638-17.275c9.531,0,8.638,7.744,8.638,17.275v69.1C127.729,128.634,128.623,136.36,119.092,136.36z
	 M119.092,170.91c9.531,0,17.274,7.743,17.274,17.275c0,9.548-7.743,17.274-17.274,17.274c-9.532,0-17.275-7.727-17.275-17.274
	C101.816,178.653,109.56,170.91,119.092,170.91z"/>
</svg>
