<?xml version="1.0" encoding="utf-8"?>
<!-- Generator: Adobe Illustrator 15.0.2, SVG Export Plug-In . SVG Version: 6.00 Build 0)  -->
<!DOCTYPE svg PUBLIC "-//W3C//DTD SVG 1.1//EN" "http://www.w3.org/Graphics/SVG/1.1/DTD/svg11.dtd">
<svg version="1.1" id="Layer_1" xmlns="http://www.w3.org/2000/svg" xmlns:xlink="http://www.w3.org/1999/xlink" x="0px" y="0px"
	 width="400px" height="400px" viewBox="-150 -150 400 400" enable-background="new -150 -150 400 400" xml:space="preserve">
<path fill="#FFFFFF" d="M202.953-1.742L171.947,16.15c2.969,10.802,4.716,22.105,4.716,33.843c0,11.752-1.716,23.058-4.716,33.866
	l31.006,17.877c15.139,8.752,20.335,28.113,11.582,43.268c-8.769,15.14-28.099,20.336-43.254,11.567l-30.943-17.846
	c-15.881,16.146-36.062,27.959-58.671,33.774v35.83c0,17.49-14.196,31.671-31.67,31.671c-17.482,0-31.671-14.181-31.671-31.671
	V172.5c-22.616-5.815-42.805-17.629-58.671-33.774l-30.943,17.846c-15.155,8.769-34.516,3.572-43.245-11.567
	c-8.753-15.154-3.565-34.516,11.574-43.268l31.006-17.877c-2.992-10.809-4.717-22.099-4.717-33.866
	c0-11.738,1.709-23.042,4.717-33.843l-31.006-17.892c-15.139-8.753-20.328-28.106-11.574-43.261
	c8.745-15.139,28.09-20.335,43.245-11.575l30.943,17.861C-24.479-54.869-4.29-66.684,18.326-72.506v-35.822
	c0-17.482,14.188-31.671,31.671-31.671c17.474,0,31.67,14.188,31.67,31.671v35.822c22.609,5.823,42.79,17.637,58.671,33.789
	l30.943-17.861c15.155-8.761,34.517-3.564,43.254,11.575C223.288-29.848,218.092-10.48,202.953-1.742z M49.997-13.333
	c-34.98,0-63.341,28.361-63.341,63.326c0,34.979,28.361,63.341,63.341,63.341s63.326-28.361,63.326-63.341
	C113.323,15.029,84.978-13.333,49.997-13.333z"/>
</svg>
