<?xml version="1.0" encoding="utf-8"?>
<!-- Generator: Adobe Illustrator 15.0.2, SVG Export Plug-In . SVG Version: 6.00 Build 0)  -->
<!DOCTYPE svg PUBLIC "-//W3C//DTD SVG 1.1//EN" "http://www.w3.org/Graphics/SVG/1.1/DTD/svg11.dtd">
<svg version="1.1" id="Layer_1" xmlns="http://www.w3.org/2000/svg" xmlns:xlink="http://www.w3.org/1999/xlink" x="0px" y="0px"
	 width="400px" height="400px" viewBox="-150 -150 400 400" enable-background="new -150 -150 400 400" xml:space="preserve">
<path fill="#FFFFFF" d="M224.165,65.827H192.51c-8.745,0-15.835-7.09-15.835-15.827c0-8.741,7.09-15.835,15.835-15.835h31.655
	C232.91,34.165,240,41.259,240,50C240,58.737,232.925,65.827,224.165,65.827z M161.976-39.564c-6.186,6.182-16.229,6.182-22.392,0
	c-6.178-6.182-6.178-16.206,0-22.392l22.392-22.388c6.163-6.186,16.206-6.186,22.393,0c6.162,6.182,6.162,16.207,0,22.388
	L161.976-39.564z M50.008,144.996c-52.47,0-95.012-42.534-95.012-94.996c0-52.47,42.534-95.004,95.012-95.004
	c52.47,0,94.996,42.534,94.996,95.004C145.004,102.462,102.478,144.996,50.008,144.996z M50.008-13.333
	c-34.98,0-63.341,28.354-63.341,63.333c0,34.973,28.369,63.333,63.341,63.333c34.972,0,63.325-28.36,63.325-63.333
	C113.333,15.02,84.987-13.333,50.008-13.333z M50.008-76.667c-8.749,0-15.835-7.094-15.835-15.835v-31.663
	c0-8.741,7.086-15.835,15.835-15.835c8.745,0,15.835,7.094,15.835,15.835v31.663C65.843-83.761,58.737-76.667,50.008-76.667z
	 M-61.957-39.564l-22.388-22.392c-6.186-6.182-6.186-16.207,0-22.388c6.182-6.186,16.207-6.186,22.388,0l22.392,22.388
	c6.182,6.186,6.182,16.21,0,22.392S-55.771-33.383-61.957-39.564z M-76.667,50c0,8.737-7.094,15.827-15.835,15.827h-31.67
	C-132.914,65.827-140,58.737-140,50c0-8.741,7.094-15.835,15.828-15.835h31.67C-83.753,34.165-76.667,41.259-76.667,50z
	 M-61.957,139.568c6.186-6.178,16.21-6.178,22.392,0c6.182,6.17,6.182,16.206,0,22.392l-22.392,22.377
	c-6.182,6.186-16.207,6.186-22.388,0c-6.186-6.17-6.186-16.206,0-22.377L-61.957,139.568z M50.008,176.667
	c8.745,0,15.835,7.082,15.835,15.827v31.671c0,8.745-7.09,15.835-15.835,15.835c-8.749,0-15.835-7.09-15.835-15.835v-31.671
	C34.172,183.749,41.259,176.667,50.008,176.667z M161.976,139.568l22.393,22.392c6.162,6.171,6.162,16.207,0,22.377
	c-6.187,6.186-16.229,6.186-22.393,0l-22.392-22.377c-6.178-6.186-6.178-16.222,0-22.392
	C145.746,133.383,155.774,133.383,161.976,139.568z"/>
</svg>
