<?xml version="1.0" encoding="utf-8"?>
<!-- Generator: Adobe Illustrator 15.0.2, SVG Export Plug-In . SVG Version: 6.00 Build 0)  -->
<!DOCTYPE svg PUBLIC "-//W3C//DTD SVG 1.1//EN" "http://www.w3.org/Graphics/SVG/1.1/DTD/svg11.dtd">
<svg version="1.1" id="Layer_1" xmlns="http://www.w3.org/2000/svg" xmlns:xlink="http://www.w3.org/1999/xlink" x="0px" y="0px"
	 width="400px" height="400px" viewBox="-150 -150 400 400" enable-background="new -150 -150 400 400" xml:space="preserve">
<path fill="#FFFFFF" d="M50.01,240c-46.639,0-84.454-37.814-84.454-84.454c0-21.381,8.021-40.845,21.113-55.731V-76.66
	c0-34.974,28.356-63.34,63.34-63.34c34.969,0,63.34,28.366,63.34,63.34V99.814c13.093,14.887,21.093,34.351,21.093,55.731
	C134.443,202.186,96.649,240,50.01,240z M71.124,119.175V73.876V-34.443V-76.66c0-11.654-9.465-21.113-21.114-21.113
	c-11.665,0-21.113,9.459-21.113,21.113v42.217V73.876v45.299c-12.552,7.319-21.114,20.784-21.114,36.371
	c0,23.32,18.907,42.228,42.227,42.228c23.319,0,42.227-18.907,42.227-42.228C92.237,139.959,83.68,126.494,71.124,119.175z
	 M50.01,187.217c-17.485,0-31.67-14.186-31.67-31.671c0-13.772,8.846-25.36,21.114-29.731V-35.108V-76.67
	c0-5.84,4.716-10.557,10.557-10.557c5.835,0,10.556,4.717,10.556,10.557v41.562v160.923c12.269,4.371,21.113,15.959,21.113,29.731
	C81.68,173.031,67.494,187.217,50.01,187.217z"/>
</svg>
