<?xml version="1.0" encoding="utf-8"?>
<!-- Generator: Adobe Illustrator 15.0.2, SVG Export Plug-In . SVG Version: 6.00 Build 0)  -->
<!DOCTYPE svg PUBLIC "-//W3C//DTD SVG 1.1//EN" "http://www.w3.org/Graphics/SVG/1.1/DTD/svg11.dtd">
<svg version="1.1" id="Layer_1" xmlns="http://www.w3.org/2000/svg" xmlns:xlink="http://www.w3.org/1999/xlink" x="0px" y="0px"
	 width="400px" height="400px" viewBox="-150 -150 400 400" enable-background="new -150 -150 400 400" xml:space="preserve">
<path fill="#FFFFFF" d="M192.511,19.777c-26.233,0-47.507,11.598-47.507,25.904c0-14.306-21.256-25.904-47.506-25.904
	c-16.086,0-30.266,4.395-38.852,11.075v75.283h8.637v34.55c0,9.54,7.735,17.275,17.275,17.275s17.258-7.735,17.258-17.275
	s7.735-17.275,17.275-17.275s17.275,7.735,17.275,17.275c0,28.62-23.205,51.816-51.809,51.816c-28.62,0-51.825-23.196-51.825-51.816
	v-34.55h8.638V30.853c-8.587-6.681-22.758-11.075-38.869-11.075c-26.233,0-47.489,11.598-47.489,25.904l0,0
	c0-14.306-21.273-25.904-47.506-25.904S-140,31.375-140,45.681c0-62.01,85.08-138.183,190.017-138.183
	C154.949-92.502,240-16.329,240,45.681C240,31.375,218.744,19.777,192.511,19.777z"/>
</svg>
