<?xml version="1.0" encoding="utf-8"?>
<!-- Generator: Adobe Illustrator 15.0.2, SVG Export Plug-In . SVG Version: 6.00 Build 0)  -->
<!DOCTYPE svg PUBLIC "-//W3C//DTD SVG 1.1//EN" "http://www.w3.org/Graphics/SVG/1.1/DTD/svg11.dtd">
<svg version="1.1" id="Layer_1" xmlns="http://www.w3.org/2000/svg" xmlns:xlink="http://www.w3.org/1999/xlink" x="0px" y="0px"
	 width="400px" height="400px" viewBox="-150 -150 400 400" enable-background="new -150 -150 400 400" xml:space="preserve">
<path fill="#FFFFFF" d="M188.191,67.267L188.191,67.267h-25.912c-9.54,0-17.275-7.727-17.275-17.267
	c0-9.536,7.735-17.275,17.275-17.275h25.912c9.541,0,17.275-7.739,17.275-17.267c0-9.544-7.734-17.275-17.275-17.275
	c-9.54,0-17.274-7.739-17.274-17.275c0-9.536,7.734-17.275,17.274-17.275c1.189,0,2.337,0.123,3.467,0.354
	C218.617-34.19,240-11.973,240,15.458C240,44.066,216.812,67.267,188.191,67.267z M101.816,32.725H84.542H24.096H-88.184
	c-9.536,0-17.267,7.739-17.267,17.275c0,9.54,7.731,17.267,17.267,17.267h17.275h34.542h25.913h34.55h25.913h34.534h17.274
	c28.62,0,51.825,23.214,51.825,51.825c0,27.431-21.383,49.648-48.341,51.471c-1.131,0.236-2.278,0.354-3.484,0.354
	c-9.54,0-17.274-7.743-17.274-17.275c0-9.548,7.734-17.274,17.274-17.274s17.275-7.744,17.275-17.275s-7.735-17.275-17.275-17.275
	H84.542H50.008H24.096h-34.55h-25.913h-34.542h-17.275C-116.799,101.816-140,78.62-140,50c0-27.422,21.379-49.641,48.337-51.471
	c1.131-0.224,2.299-0.346,3.479-0.346l0,0H24.096h60.446h17.274c9.54,0,17.275-7.739,17.275-17.275
	c0-9.536-7.735-17.275-17.275-17.275s-17.274-7.731-17.274-17.275c0-9.536,7.734-17.275,17.274-17.275
	c1.206,0,2.354,0.131,3.484,0.354c26.958,1.822,48.341,24.04,48.341,51.471C153.642,9.516,130.437,32.725,101.816,32.725z"/>
</svg>
